<?xml version="1.0" encoding="UTF-8" standalone="no"?>
<!DOCTYPE svg PUBLIC "-//W3C//DTD SVG 1.1//EN" "http://www.w3.org/Graphics/SVG/1.1/DTD/svg11.dtd">
<svg width="100%" height="100%" viewBox="0 0 619 619" version="1.1" xmlns="http://www.w3.org/2000/svg" xmlns:xlink="http://www.w3.org/1999/xlink" xml:space="preserve" xmlns:serif="http://www.serif.com/" style="fill-rule:evenodd;clip-rule:evenodd;stroke-linejoin:round;stroke-miterlimit:2;">
    <g transform="matrix(1,0,0,1,-576.322386,-141.231818)">
        <rect x="0" y="0" width="1920" height="1080"/>
        <g transform="matrix(0.892642,0,0,1.363829,89.949575,-104.077557)">
            <path d="M1237.463,293.196L1237.463,519.874C1237.463,582.421 1159.878,633.202 1064.315,633.202L718.018,633.202C622.454,633.202 544.869,582.421 544.869,519.874L544.869,293.196C544.869,230.649 622.454,179.868 718.018,179.868L1064.315,179.868C1159.878,179.868 1237.463,230.649 1237.463,293.196Z" style="fill:rgb(255,251,242);"/>
        </g>
        <g transform="matrix(0,-1,1,0,412.053398,1421.101549)">
            <clipPath id="_clip1">
                <rect x="897.953" y="164.269" width="268.75" height="629.687"/>
            </clipPath>
            <g clip-path="url(#_clip1)">
                <path d="M922.619,231.102C1056.071,231.102 1164.416,339.448 1164.416,472.899C1164.416,606.351 1056.071,714.696 922.619,714.696C789.168,714.696 680.823,606.351 680.823,472.899C680.823,339.448 789.168,231.102 922.619,231.102ZM922.619,352.001C989.345,352.001 1043.518,406.174 1043.518,472.899C1043.518,539.625 989.345,593.798 922.619,593.798C855.894,593.798 801.721,539.625 801.721,472.899C801.721,406.174 855.894,352.001 922.619,352.001Z" style="fill:url(#_Radial2);"/>
            </g>
        </g>
        <g transform="matrix(1.023051,0,0,0.766952,541.199698,-127.519208)">
            <path d="M194.374,848.382L293.664,725.127L336.597,779.232L443.245,658.585L593.024,848.382L194.374,848.382Z" style="fill:rgb(255,161,160);"/>
        </g>
        <g transform="matrix(1.293553,0,0,1.293553,-151.817217,-157.002069)">
            <path d="M701.826,583.117L701.826,580.413C703.417,580.263 704.806,580 705.993,579.624C707.181,579.249 708.538,578.621 710.065,577.74L712.419,577.74L712.419,583.085C714.837,581.176 716.724,579.893 718.082,579.236C720.16,578.239 722.143,577.74 724.03,577.74C725.324,577.74 726.591,577.979 727.832,578.456C729.072,578.933 730.069,579.522 730.822,580.222C731.575,580.922 732.216,581.876 732.746,583.085C734.973,581.112 737.036,579.729 738.934,578.933C740.832,578.138 742.756,577.74 744.707,577.74C746.574,577.74 748.222,578.128 749.654,578.902C751.085,579.676 752.125,580.646 752.771,581.812C753.418,582.979 753.742,584.686 753.742,586.934L753.742,601.694C753.742,603.242 753.773,604.144 753.837,604.398C753.943,604.801 754.171,605.183 754.521,605.543C754.871,605.904 755.269,606.158 755.714,606.307C756.159,606.455 756.986,606.529 758.195,606.529L759.213,606.529L759.213,609.202L743.212,609.202L743.212,606.529C745.036,606.508 746.218,606.376 746.759,606.132C747.3,605.888 747.703,605.49 747.968,604.939C748.233,604.387 748.366,603.306 748.366,601.694L748.366,587.666C748.366,585.884 748.207,584.654 747.888,583.975C747.57,583.297 747.003,582.73 746.187,582.274C745.37,581.818 744.357,581.59 743.149,581.59C741.643,581.59 740.063,581.993 738.409,582.798C736.203,583.901 734.464,585.142 733.192,586.52L733.192,601.694C733.192,603.157 733.261,604.117 733.399,604.573C733.536,605.029 733.77,605.411 734.098,605.718C734.427,606.026 734.809,606.238 735.244,606.354C735.678,606.471 736.733,606.529 738.409,606.529L738.409,609.202L722.726,609.202L722.726,606.529L723.617,606.529C724.868,606.529 725.753,606.381 726.273,606.084C726.792,605.787 727.201,605.331 727.498,604.716C727.71,604.228 727.816,603.221 727.816,601.694L727.816,588.143C727.816,586.149 727.662,584.803 727.354,584.103C727.047,583.403 726.458,582.809 725.589,582.321C724.719,581.833 723.702,581.59 722.535,581.59C721.157,581.59 719.768,581.929 718.368,582.608C716.29,583.604 714.381,584.909 712.642,586.52L712.642,602.871C712.642,603.847 712.774,604.562 713.04,605.018C713.305,605.474 713.723,605.84 714.296,606.116C714.869,606.392 715.653,606.529 716.65,606.529L717.827,606.529L717.827,609.202L701.826,609.202L701.826,606.529L702.685,606.529C704.148,606.529 705.113,606.413 705.58,606.179C706.259,605.861 706.746,605.352 707.043,604.653C707.213,604.271 707.298,603.285 707.298,601.694L707.298,583.117L701.826,583.117Z" style="fill:rgb(209,169,169);fill-rule:nonzero;"/>
            <path d="M790.356,600.994L792.392,602.648C790.844,604.494 789.343,605.957 787.891,607.038C786.438,608.12 785.065,608.878 783.771,609.313C782.478,609.748 780.961,609.965 779.222,609.965C776.105,609.965 773.454,609.329 771.269,608.056C768.767,606.593 766.848,604.684 765.512,602.33C764.176,599.976 763.508,597.198 763.508,593.996C763.508,590.645 764.154,587.782 765.448,585.407C766.742,583.032 768.55,581.16 770.872,579.792C773.194,578.424 775.882,577.74 778.936,577.74C781.205,577.74 783.177,578.095 784.853,578.804C786.528,579.512 787.949,580.581 789.115,582.009C790.282,583.437 791.13,585.071 791.66,586.912C791.957,587.991 792.127,589.387 792.169,591.101L769.679,591.101C769.615,592.142 769.584,592.918 769.584,593.428C769.584,596.106 770.05,598.491 770.983,600.584C771.916,602.677 773.152,604.218 774.689,605.206C776.227,606.194 777.971,606.688 779.922,606.688C781.576,606.688 783.177,606.301 784.726,605.527C786.274,604.753 788.151,603.242 790.356,600.994ZM786.284,588.143C785.966,586.192 785.515,584.75 784.932,583.816C784.349,582.883 783.522,582.141 782.451,581.59C781.38,581.038 780.177,580.763 778.84,580.763C777.504,580.763 776.253,581.038 775.087,581.59C773.92,582.141 772.95,582.904 772.176,583.88C771.402,584.856 770.729,586.276 770.156,588.143L786.284,588.143Z" style="fill:rgb(209,169,169);fill-rule:nonzero;"/>
            <path d="M804.862,563.394C805.88,563.394 806.749,563.749 807.47,564.459C808.191,565.17 808.552,566.034 808.552,567.052C808.552,568.07 808.191,568.939 807.47,569.661C806.749,570.382 805.88,570.742 804.862,570.742C803.844,570.742 802.974,570.382 802.253,569.661C801.532,568.939 801.172,568.07 801.172,567.052C801.172,566.034 801.532,565.17 802.253,564.459C802.974,563.749 803.844,563.394 804.862,563.394ZM796.75,583.053L796.75,580.413C798.51,580.203 799.989,579.91 801.188,579.533C802.386,579.155 803.748,578.558 805.275,577.74L807.598,577.74L807.598,603.253C807.598,604.144 807.725,604.812 807.979,605.257C808.234,605.702 808.589,606.026 809.045,606.227C809.501,606.429 810.333,606.529 811.542,606.529L813.037,606.529L813.037,609.202L796.75,609.202L796.75,606.529L798.054,606.529C799.475,606.529 800.43,606.402 800.917,606.148C801.405,605.893 801.75,605.533 801.951,605.066C802.153,604.6 802.253,603.507 802.253,601.79L802.253,583.053L796.75,583.053Z" style="fill:rgb(209,169,169);fill-rule:nonzero;"/>
            <path d="M816.091,567.847L816.091,565.207C818.806,564.995 821.616,564.104 824.521,562.535L826.97,562.535L826.97,594.274L838.645,584.993C840.511,583.509 841.444,582.523 841.444,582.035C841.444,581.738 841.243,581.505 840.84,581.335C840.586,581.229 839.96,581.176 838.963,581.176L837.277,581.176L837.277,578.504L853.405,578.504L853.405,581.176C851.603,581.176 850.161,581.362 849.079,581.733C847.998,582.104 846.746,582.83 845.325,583.912L836.1,590.976L846.98,602.839C848.019,603.985 848.867,604.79 849.524,605.257C850.182,605.724 850.839,606.047 851.497,606.227C852.154,606.407 853.183,606.508 854.582,606.529L854.582,609.202L837.659,609.202L837.659,606.529L838.963,606.529C840.257,606.529 841.073,606.429 841.413,606.227C841.752,606.026 841.922,605.755 841.922,605.416C841.922,605.077 841.604,604.589 840.967,603.953C840.861,603.847 840.745,603.719 840.617,603.571L832.156,593.869L826.97,597.813L826.97,601.98C826.97,603.529 827.087,604.547 827.32,605.034C827.554,605.522 827.919,605.893 828.418,606.148C828.916,606.402 829.876,606.529 831.297,606.529L832.474,606.529L832.474,609.202L816.091,609.202L816.091,606.529C817.936,606.508 819.071,606.434 819.495,606.307C820.237,606.073 820.773,605.66 821.101,605.066C821.43,604.472 821.594,603.327 821.594,601.631L821.594,567.847L816.091,567.847Z" style="fill:rgb(209,169,169);fill-rule:nonzero;"/>
            <path d="M879.808,590.783L879.808,587.316C879.808,584.962 879.151,583.281 877.836,582.274C876.521,581.266 874.666,580.763 872.269,580.763C871.082,580.763 870.042,580.906 869.152,581.192C868.261,581.478 867.545,581.871 867.005,582.369C866.464,582.867 866.066,583.435 865.812,584.071C865.706,584.304 865.451,585.205 865.048,586.775C864.56,588.683 863.574,589.638 862.09,589.638C861.241,589.638 860.558,589.357 860.038,588.795C859.518,588.233 859.259,587.475 859.259,586.52C859.259,585.121 859.778,583.747 860.817,582.401C861.856,581.054 863.442,579.941 865.573,579.061C867.704,578.181 870.223,577.74 873.128,577.74C875.843,577.74 878.165,578.159 880.095,578.996C882.025,579.832 883.446,581.034 884.357,582.602C884.994,583.683 885.312,585.653 885.312,588.512L885.312,600.746C885.312,602.484 885.365,603.617 885.471,604.147C885.704,605.057 886.112,605.741 886.696,606.196C887.279,606.652 888.037,606.879 888.97,606.879C889.946,606.879 891.112,606.655 892.469,606.206L892.469,608.978C890.709,609.487 889.129,609.742 887.729,609.742C886.224,609.742 884.957,609.53 883.928,609.106C882.899,608.682 882.056,608.062 881.399,607.245C880.742,606.429 880.317,605.458 880.127,604.334C877.582,606.328 875.281,607.728 873.224,608.533C871.166,609.339 869.088,609.742 866.989,609.742C864.062,609.742 861.687,608.947 859.863,607.356C858.039,605.766 857.127,603.9 857.127,601.758C857.127,600.464 857.461,599.234 858.129,598.068C858.797,596.901 859.815,595.873 861.183,594.982C862.551,594.091 864.698,593.307 867.625,592.628C870.551,591.949 874.613,591.334 879.808,590.783ZM879.808,593.551C874.888,594.272 871.845,594.77 870.679,595.046C868.367,595.576 866.713,596.159 865.716,596.795C864.719,597.431 864.009,598.115 863.585,598.847C863.161,599.579 862.949,600.358 862.949,601.185C862.949,602.012 863.187,602.813 863.664,603.587C864.142,604.361 864.815,604.971 865.684,605.416C866.554,605.861 867.476,606.084 868.452,606.084C869.83,606.084 871.389,605.755 873.128,605.098C874.867,604.44 877.094,603.157 879.808,601.249L879.808,593.551Z" style="fill:rgb(209,169,169);fill-rule:nonzero;"/>
            <path d="M902.585,563.394C903.603,563.394 904.473,563.749 905.194,564.459C905.915,565.17 906.275,566.034 906.275,567.052C906.275,568.07 905.915,568.939 905.194,569.661C904.473,570.382 903.603,570.742 902.585,570.742C901.567,570.742 900.698,570.382 899.977,569.661C899.256,568.939 898.895,568.07 898.895,567.052C898.895,566.034 899.256,565.17 899.977,564.459C900.698,563.749 901.567,563.394 902.585,563.394ZM894.473,583.053L894.473,580.413C896.234,580.203 897.713,579.91 898.911,579.533C900.109,579.155 901.472,578.558 902.999,577.74L905.321,577.74L905.321,603.253C905.321,604.144 905.448,604.812 905.703,605.257C905.957,605.702 906.312,606.026 906.768,606.227C907.224,606.429 908.057,606.529 909.265,606.529L910.761,606.529L910.761,609.202L894.473,609.202L894.473,606.529L895.778,606.529C897.198,606.529 898.153,606.402 898.641,606.148C899.128,605.893 899.473,605.533 899.674,605.066C899.876,604.6 899.977,603.507 899.977,601.79L899.977,583.053L894.473,583.053Z" style="fill:rgb(209,169,169);fill-rule:nonzero;"/>
        </g>
    </g>
    <defs>
        <radialGradient id="_Radial2" cx="0" cy="0" r="1" gradientUnits="userSpaceOnUse" gradientTransform="matrix(483.593682,0,0,483.593682,680.822514,472.899289)"><stop offset="0" style="stop-color:white;stop-opacity:1"/><stop offset="0.13" style="stop-color:rgb(255,253,252);stop-opacity:1"/><stop offset="0.4" style="stop-color:rgb(255,248,244);stop-opacity:1"/><stop offset="0.7" style="stop-color:rgb(255,224,210);stop-opacity:1"/><stop offset="1" style="stop-color:rgb(255,155,155);stop-opacity:1"/></radialGradient>
    </defs>
</svg>
