<svg xmlns="http://www.w3.org/2000/svg" viewBox="0 -0.30000001192092896 114.59000396728516 37.79999923706055" data-asc="0.75" width="114.59000396728516" height="37.79999923706055"><defs/><g fill="#000000"><g transform="translate(0, 0)"><path d="M61.75 4.70Q62 4.70 62.10 4.95Q62.20 5.20 62.05 5.40Q59.65 7.50 57.73 10.42Q55.80 13.35 54.40 16.60Q53.00 19.85 52.25 23.23Q51.50 26.60 51.50 29.55Q51.50 32.25 52.15 33.77Q52.80 35.30 53.95 35.30Q55.85 35.30 57.70 32.50Q57.85 32.35 58.03 32.48Q58.20 32.60 58.15 32.80Q57.60 33.65 56.93 34.48Q56.25 35.30 55.50 35.98Q54.75 36.65 54.03 37.08Q53.30 37.50 52.70 37.50Q51.40 37.50 50.40 35.98Q49.40 34.45 49.40 31.30Q49.40 28.70 49.93 25.70Q50.45 22.70 51.50 19.68Q52.55 16.65 54.13 13.80Q55.70 10.95 57.75 8.60Q54.65 10.90 51.43 14.13Q48.20 17.35 45.23 21.02Q42.25 24.70 39.70 28.57Q37.15 32.45 35.45 36.05Q35.25 36.40 34.70 36.95Q34.15 37.50 33.85 37.50Q33.50 37.50 33.50 37.15Q34.45 29.40 36.23 23.38Q38.00 17.35 40.45 12.25Q36.45 18.25 32.60 22.95Q28.75 27.65 24.90 30.88Q21.05 34.10 17.05 35.80Q13.05 37.50 8.75 37.50Q6.70 37.50 5.10 36.85Q3.50 36.20 2.35 35.05Q1.20 33.90 0.60 32.35Q0 30.80 0 28.95Q0 26.55 1.13 24.55Q2.25 22.55 4.45 21.40Q4.65 21.30 4.72 21.50Q4.80 21.70 4.70 21.90Q3.15 22.90 2.52 24.20Q1.90 25.50 1.90 27.60Q1.90 29.25 2.45 30.73Q3.00 32.20 4.07 33.30Q5.15 34.40 6.72 35.05Q8.30 35.70 10.40 35.70Q14.80 35.70 18.82 33.67Q22.85 31.65 26.65 28.10Q30.45 24.55 34.10 19.80Q37.75 15.05 41.40 9.55Q37.90 8.35 34.08 7.52Q30.25 6.70 26.75 6.70Q23 6.70 20.50 8.88Q18 11.05 17.45 15.50Q17.35 15.75 17.18 15.70Q17 15.65 16.95 15.40Q17.50 10.50 20.55 7.90Q23.60 5.30 28.50 5.30Q30.55 5.30 32.65 5.57Q34.75 5.85 36.75 6.27Q38.75 6.70 40.58 7.22Q42.40 7.75 43.90 8.25Q44.00 8.20 44.13 8.20Q44.25 8.20 44.35 8.15Q44.55 8.15 44.58 8.35Q44.60 8.55 44.50 8.70Q43.80 9.15 43.35 9.80Q42.90 10.45 42.35 11.50Q39.85 16.50 38.38 21.98Q36.90 27.45 35.90 33.05Q38.25 28.90 41.30 24.75Q44.35 20.60 47.75 16.85Q51.15 13.10 54.75 9.97Q58.35 6.85 61.75 4.70ZM68.70 26.90Q68.70 27.60 68.15 28.20Q67.60 28.80 66.65 29.27Q65.70 29.75 64.48 30.15Q63.25 30.55 61.90 30.90Q61.85 31.45 61.83 32Q61.80 32.55 61.80 33.20Q61.80 34.45 62.35 35.30Q62.90 36.15 63.90 36.15Q64.90 36.15 65.78 35.65Q66.65 35.15 67.35 34.30Q67.55 34.20 67.65 34.35Q67.75 34.50 67.65 34.70Q66.80 35.85 65.53 36.67Q64.25 37.50 62.85 37.50Q61.55 37.50 60.73 36.65Q59.90 35.80 59.90 34.15Q59.90 32.65 60.45 30.98Q61.00 29.30 61.90 27.90Q62.80 26.50 63.98 25.60Q65.15 24.70 66.45 24.70Q67.40 24.70 68.05 25.38Q68.70 26.05 68.70 26.90M65.40 26Q64.25 26 63.35 27Q62.45 28 62.05 30.15Q64.45 29.80 65.58 29.13Q66.70 28.45 66.70 27.60Q66.70 26.90 66.35 26.45Q66 26 65.40 26ZM71.30 28.20Q71.15 28.30 71.03 28.13Q70.90 27.95 71 27.80Q71.70 27.10 72.90 26.20Q74.10 25.30 75.30 24.70Q75.70 24.70 75.70 25.15Q75.05 26.30 74.42 27.65Q73.80 29 73.33 30.32Q72.85 31.65 72.55 32.88Q72.25 34.10 72.25 34.90Q72.25 35.95 72.95 35.95Q73.50 35.95 74.03 35.48Q74.55 35 75.25 34.20Q75.35 34.10 75.50 34.25Q75.65 34.40 75.55 34.60Q74.65 35.70 73.63 36.60Q72.60 37.50 71.70 37.50Q70.40 37.50 70.40 35.85Q70.40 34.90 70.73 33.58Q71.05 32.25 71.55 30.90Q72.05 29.55 72.67 28.30Q73.30 27.05 73.90 26.15Q73.35 26.55 72.53 27.17Q71.70 27.80 71.30 28.20M75.80 22.55Q75.65 22.70 75.53 22.57Q75.40 22.45 75.35 22.23Q75.30 22 75.30 21.70Q75.30 21.40 75.45 21.20Q76.75 19.40 79.10 17.35Q79.25 17.30 79.40 17.42Q79.55 17.55 79.45 17.65Q78.40 18.60 77.45 19.93Q76.50 21.25 75.80 22.55ZM83.35 30.95Q83.90 33.60 84.75 35.02Q85.60 36.45 86.85 36.45Q87.40 36.45 87.88 36.20Q88.35 35.95 88.90 35.25Q89.05 35.15 89.15 35.27Q89.25 35.40 89.20 35.55Q88.50 36.45 87.70 36.98Q86.90 37.50 85.80 37.50Q84.20 37.50 83.25 35.80Q82.30 34.10 81.70 30.85Q81.65 30.45 81.95 30.35Q82.85 30.55 83.75 30.38Q84.65 30.20 85.35 29.80Q86.05 29.40 86.48 28.75Q86.90 28.10 86.90 27.30Q86.90 26.05 85.65 26.05Q83.95 26.05 82.45 27.73Q80.95 29.40 80.20 32.65Q80 33.50 79.78 34.52Q79.55 35.55 79.40 36.25Q79.30 36.65 79.20 36.85Q79.10 37.05 78.75 37.20Q78.15 37.50 77.70 37.50Q77.30 37.50 77.45 37.05Q79 28.70 81.68 21.82Q84.35 14.95 87.55 10.02Q90.75 5.10 94.15 2.40Q97.55-0.30 100.55-0.30Q101.65-0.30 102.38 0.13Q103.10 0.55 103.38 1.20Q103.65 1.85 103.53 2.65Q103.40 3.45 102.80 4.25Q102.45 4.50 102.35 4.10Q102.60 3.10 101.88 2.15Q101.15 1.20 99.40 1.20Q97.20 1.20 94.73 2.85Q92.25 4.50 89.75 7.95Q87.25 11.40 84.93 16.72Q82.60 22.05 80.75 29.40Q81.85 27.25 83.30 25.98Q84.75 24.70 86.75 24.70Q87.60 24.70 88.13 25.30Q88.65 25.90 88.65 26.65Q88.65 28.25 87.13 29.45Q85.60 30.65 83.35 30.95ZM102.60 34.35Q102.70 34.25 102.85 34.35Q103.00 34.45 102.95 34.65Q101.90 36.10 100.88 36.80Q99.85 37.50 99.15 37.50Q98.70 37.50 98.43 37.05Q98.15 36.60 98.08 35.83Q98.00 35.05 98.13 34.08Q98.25 33.10 98.55 32.05Q97.20 34.15 95.70 35.67Q94.20 37.20 92.80 37.50Q91.90 37.50 91.28 36.63Q90.65 35.75 90.65 33.90Q90.65 32.25 91.33 30.63Q92.00 29 93.15 27.67Q94.30 26.35 95.80 25.55Q97.30 24.75 98.95 24.75Q99.85 24.75 100.50 24.95Q101.15 25.15 101.70 25.55Q102.00 25.30 102.53 25.07Q103.05 24.85 103.50 24.85Q103.75 24.85 103.65 25.10Q102.50 26.50 101.68 28.20Q100.85 29.90 100.40 31.50Q99.95 33.10 99.83 34.33Q99.70 35.55 100.00 36Q100.25 36.35 100.90 36.02Q101.55 35.70 102.60 34.35M93.90 35.80Q94.45 35.80 95.33 35.02Q96.20 34.25 97.15 33Q98.10 31.75 99.03 30.18Q99.95 28.60 100.65 27Q100.45 26.35 99.73 25.95Q99.00 25.55 98.05 25.55Q96.95 25.55 95.98 26.13Q95.00 26.70 94.25 27.73Q93.50 28.75 93.05 30.15Q92.60 31.55 92.60 33.25Q92.60 34.35 92.98 35.08Q93.35 35.80 93.90 35.80ZM106.40 28.20Q106.25 28.30 106.13 28.13Q106.00 27.95 106.10 27.80Q106.80 27.10 108.00 26.20Q109.20 25.30 110.40 24.70Q110.80 24.70 110.80 25.15Q110.15 26.30 109.53 27.65Q108.90 29 108.43 30.32Q107.95 31.65 107.65 32.88Q107.35 34.10 107.35 34.90Q107.35 35.95 108.05 35.95Q108.60 35.95 109.13 35.48Q109.65 35 110.35 34.20Q110.45 34.10 110.60 34.25Q110.75 34.40 110.65 34.60Q109.75 35.70 108.73 36.60Q107.70 37.50 106.80 37.50Q105.50 37.50 105.50 35.85Q105.50 34.90 105.83 33.58Q106.15 32.25 106.65 30.90Q107.15 29.55 107.78 28.30Q108.40 27.05 109.00 26.15Q108.45 26.55 107.63 27.17Q106.80 27.80 106.40 28.20M110.90 22.55Q110.75 22.70 110.63 22.57Q110.50 22.45 110.45 22.23Q110.40 22 110.40 21.70Q110.40 21.40 110.55 21.20Q111.85 19.40 114.20 17.35Q114.35 17.30 114.50 17.42Q114.65 17.55 114.55 17.65Q113.50 18.60 112.55 19.93Q111.60 21.25 110.90 22.55Z"/></g></g></svg>